<?xml version="1.0" encoding="UTF-8"?>
<svg xmlns="http://www.w3.org/2000/svg" viewBox="0 0 2149 1013" fill="none">
<g clip-path="url(#clip_logo_mark)">
<path d="M1922.44 283.017C1957.08 374.589 1918.23 475.331 1835.67 508.02C1753.12 540.708 1658.11 492.98 1623.47 401.408" fill="#329EFF"/>
<path d="M1724.92 378.42C1711.34 383.641 1706.42 404.577 1713.95 425.083C1721.48 445.59 1738.65 458.032 1752.23 452.811C1765.81 447.59 1770.74 426.655 1763.21 406.148C1755.68 385.641 1738.5 373.2 1724.91 378.42H1724.92Z" fill="white"/>
<path d="M1765.23 405.369C1765.09 404.992 1764.94 404.603 1764.8 404.226C1764.75 404.096 1764.7 403.953 1764.65 403.837C1756.41 383.109 1738.51 370.823 1724.16 376.343C1712.25 380.927 1706.38 396.395 1708.84 413.642C1708.84 413.733 1708.84 413.824 1708.87 413.915C1709.44 417.85 1710.46 421.863 1711.92 425.863C1719.88 447.512 1738.31 460.526 1752.99 454.889C1767.7 449.227 1773.19 427.019 1765.23 405.382V405.369ZM1724.91 378.421C1737.57 373.55 1753.32 384.018 1761.51 402.044C1736.6 390.109 1716.35 406.122 1710.71 411.343C1709.08 395.94 1714.4 382.473 1724.92 378.421H1724.91ZM1752.23 452.811C1738.64 458.019 1721.48 445.59 1713.94 425.084C1712.57 421.382 1711.63 417.668 1711.06 414.018C1712.85 412.213 1720.96 404.564 1732.73 401.356C1731.12 408.512 1731.6 416.746 1734.55 424.798C1734.64 425.032 1734.72 425.239 1734.81 425.46L1741.69 424.097L1738.07 432.201C1743.16 440.772 1750.7 446.694 1758.6 448.668C1756.76 450.486 1754.64 451.889 1752.23 452.811Z" fill="black"/>
<path d="M1857.48 365.135C1832.59 353.199 1812.35 369.187 1806.68 374.433C1805.05 359.031 1810.38 345.55 1820.89 341.511C1833.55 336.641 1849.31 347.108 1857.49 365.135H1857.48Z" fill="white"/>
<path d="M1854.57 411.745C1852.74 413.564 1850.61 414.979 1848.21 415.888C1834.61 421.109 1817.45 408.667 1809.91 388.174C1808.54 384.472 1807.6 380.758 1807.04 377.109C1808.78 375.329 1816.89 367.641 1828.69 364.433C1827.1 371.589 1827.58 379.836 1830.52 387.875C1830.6 388.109 1830.69 388.33 1830.78 388.55L1837.66 387.174L1834.04 395.278C1839.13 403.862 1846.66 409.784 1854.57 411.745Z" fill="white"/>
<path d="M1861.2 368.459C1861.06 368.083 1860.91 367.693 1860.77 367.316C1860.72 367.187 1860.67 367.057 1860.63 366.953C1852.39 346.212 1834.47 333.926 1820.13 339.433C1808.23 344.017 1802.37 359.459 1804.8 376.68C1804.81 376.823 1804.83 376.953 1804.86 377.096C1805.44 381.005 1806.44 384.992 1807.9 388.953C1815.84 410.603 1834.28 423.616 1848.97 417.979C1863.67 412.317 1869.15 390.109 1861.2 368.459ZM1848.21 415.902C1834.61 421.122 1817.45 408.681 1809.91 388.187C1808.54 384.486 1807.61 380.771 1807.04 377.122C1808.78 375.343 1816.89 367.654 1828.69 364.446C1827.1 371.602 1827.58 379.849 1830.53 387.888C1830.6 388.122 1830.69 388.343 1830.78 388.564L1837.66 387.187L1834.04 395.291C1839.13 403.875 1846.66 409.798 1854.57 411.759C1852.74 413.577 1850.61 414.992 1848.21 415.902ZM1806.68 374.433C1805.05 359.031 1810.38 345.55 1820.89 341.511C1833.55 336.641 1849.31 347.108 1857.5 365.135C1832.6 353.199 1812.36 369.187 1806.69 374.433H1806.68Z" fill="black"/>
<path d="M1842.93 437.135C1839.72 435.564 1835.62 435.863 1831.64 437.967C1829.17 439.278 1827.02 441.096 1824.93 442.837C1824.25 443.408 1823.54 444.006 1822.84 444.564C1815.1 450.759 1805.73 454.759 1795.76 456.149C1793.37 456.486 1790.96 456.655 1788.58 456.668C1787.97 456.668 1787.19 456.577 1786.38 456.473C1784.63 456.252 1782.65 456.006 1781.2 456.577C1776.87 458.317 1776.05 465.136 1777.39 469.071C1778.76 473.084 1782.28 476.512 1786.81 478.24C1789.35 479.214 1792.25 479.733 1795.67 479.811C1795.09 483.214 1795.26 486.733 1796.17 490.084C1797.63 495.331 1800.91 499.24 1804.95 500.539C1807.49 501.357 1810.15 501.084 1811.93 500.811C1813.26 500.617 1814.5 500.305 1815.65 499.928C1819.22 498.76 1821.85 496.734 1823.26 494.084C1824.94 490.902 1824.73 487.136 1824.55 483.811V483.551C1824.37 480.474 1824.33 476.967 1826.06 474.486C1826.64 473.655 1827.4 472.941 1828.21 472.188C1828.79 471.655 1829.38 471.084 1829.93 470.46C1829.97 470.421 1829.99 470.396 1830 470.357C1833.26 468.434 1836.36 466.253 1839.22 463.837C1842.36 461.188 1846.72 457.006 1848.24 451.421C1849.62 446.369 1848 439.655 1842.94 437.148L1842.93 437.135ZM1828.52 468.707C1828.46 468.798 1828.37 468.889 1828.3 468.98C1827.82 469.525 1827.28 470.032 1826.71 470.551C1825.85 471.357 1824.98 472.175 1824.26 473.201C1822.13 476.279 1822.16 480.227 1822.35 483.694V483.941C1822.54 487.123 1822.71 490.409 1821.34 493.032C1819.28 496.915 1814.36 498.201 1811.6 498.63C1809.1 499.006 1807.2 498.941 1805.58 498.422C1802.24 497.357 1799.5 494.019 1798.25 489.487C1796.98 484.876 1797.33 479.707 1799.21 475.318C1801.09 470.928 1804.55 467.149 1808.73 464.98C1809.57 464.538 1810.41 464.175 1811.26 463.902C1813.64 463.11 1816.03 462.915 1818.18 463.343C1816.58 464.486 1815.22 465.954 1814.22 467.616C1813.92 468.136 1814.07 468.824 1814.59 469.149C1815.11 469.46 1815.77 469.305 1816.1 468.772C1817.3 466.746 1819.16 465.071 1821.34 464.058C1822.51 463.512 1823.73 463.162 1824.97 463.032C1826.8 462.837 1828.93 463.33 1829.55 464.863C1830.06 466.11 1829.38 467.603 1828.52 468.694V468.707Z" fill="black"/>
<path d="M1707.46 349.312C1727.27 243.9 1693.63 148.618 1632.33 136.494C1571.03 124.37 1505.29 199.995 1485.49 305.407C1465.69 410.819 1499.33 506.101 1560.63 518.225C1621.92 530.35 1687.66 454.725 1707.46 349.312Z" fill="#FF8A70"/>
<path d="M1632.83 260.536C1631.24 263.835 1629.91 267.432 1628.93 271.263C1623.49 292.459 1630.48 312.77 1644.51 316.563C1646.99 317.238 1649.54 317.342 1652.06 316.952C1646.7 310.68 1643.91 301.368 1644.6 291.355L1652.12 286.887L1645.73 283.939C1645.78 283.705 1645.83 283.471 1645.89 283.251C1648.03 274.926 1652.3 267.926 1657.66 263.056C1646.22 258.679 1635.24 260.133 1632.82 260.536H1632.83Z" fill="white"/>
<path d="M1634.06 258.147C1641.67 257.225 1667.21 256.16 1680.76 280.653C1684.28 261.095 1677.32 243.224 1664.26 239.692C1653.4 236.757 1641.44 244.614 1634.08 258.147H1634.06Z" fill="white"/>
<path d="M1664.8 237.562C1679.62 241.562 1687.28 262.173 1682.3 283.952C1682.3 284.069 1682.27 284.173 1682.23 284.264C1682.13 284.692 1682.03 285.121 1681.92 285.55C1676.17 307.913 1659.13 322.784 1643.96 318.693C1628.77 314.602 1621.09 293.069 1626.84 270.692C1627.9 266.588 1629.33 262.731 1631.06 259.186C1631.08 259.186 1631.06 259.16 1631.06 259.16C1631.1 259.082 1631.14 259.004 1631.18 258.939C1638.91 243.393 1652.46 234.211 1664.79 237.536L1664.8 237.562ZM1680.76 280.653C1684.28 261.095 1677.32 243.224 1664.26 239.692C1653.4 236.757 1641.44 244.614 1634.08 258.147C1641.68 257.225 1667.22 256.16 1680.78 280.653H1680.76ZM1628.92 271.264C1623.48 292.459 1630.47 312.771 1644.5 316.563C1646.98 317.238 1649.53 317.342 1652.05 316.953C1646.69 310.68 1643.9 301.368 1644.59 291.355L1652.11 286.887L1645.72 283.939C1645.77 283.705 1645.82 283.472 1645.88 283.251C1648.02 274.926 1652.29 267.926 1657.65 263.056C1646.21 258.679 1635.23 260.134 1632.81 260.536C1631.22 263.835 1629.89 267.432 1628.91 271.264H1628.92Z" fill="black"/>
<path d="M1531.58 247.588C1530 250.9 1528.67 254.484 1527.7 258.315C1522.24 279.511 1529.23 299.822 1543.27 303.602C1545.75 304.277 1548.28 304.381 1550.8 303.991C1545.46 297.706 1542.65 288.407 1543.35 278.407L1550.88 273.952L1544.49 271.004C1544.56 270.77 1544.59 270.536 1544.66 270.316C1546.8 261.991 1551.07 254.978 1556.43 250.121C1544.99 245.744 1534 247.198 1531.58 247.601V247.588Z" fill="white"/>
<path d="M1532.81 245.186C1540.42 244.264 1565.96 243.199 1579.51 267.692C1583.03 248.134 1576.08 230.25 1563.01 226.731C1552.15 223.796 1540.19 231.653 1532.83 245.186H1532.81Z" fill="white"/>
<path d="M1563.55 224.601C1578.37 228.601 1586.03 249.211 1581.05 270.991C1581.05 271.108 1581.02 271.212 1580.98 271.303C1580.88 271.731 1580.78 272.16 1580.67 272.601C1574.92 294.965 1557.88 309.836 1542.71 305.745C1527.52 301.654 1519.84 280.121 1525.59 257.744C1526.65 253.64 1528.08 249.783 1529.81 246.237C1529.83 246.237 1529.81 246.211 1529.81 246.211C1529.85 246.133 1529.89 246.056 1529.93 245.991C1537.66 230.445 1551.21 221.263 1563.54 224.588L1563.55 224.601ZM1579.51 267.705C1583.03 248.146 1576.08 230.263 1563.01 226.744C1552.15 223.808 1540.19 231.666 1532.83 245.198C1540.43 244.276 1565.97 243.211 1579.53 267.705H1579.51ZM1527.69 258.315C1522.23 279.511 1529.22 299.822 1543.25 303.602C1545.73 304.277 1548.27 304.381 1550.78 303.991C1545.44 297.706 1542.63 288.407 1543.34 278.407L1550.87 273.952L1544.48 271.004C1544.54 270.77 1544.58 270.536 1544.65 270.316C1546.79 261.991 1551.06 254.978 1556.42 250.121C1544.98 245.744 1533.99 247.198 1531.57 247.601C1529.99 250.913 1528.66 254.497 1527.69 258.328V258.315Z" fill="black"/>
<path d="M759.299 481.526L616.64 517.28C597.858 521.994 578.887 510.215 574.292 490.981L475.929 80.1701C471.323 60.9231 482.827 41.5072 501.621 36.7929L644.293 1.03917C663.075 -3.67518 682.046 8.10419 686.64 27.3382L784.991 438.149C789.597 457.396 778.093 476.812 759.299 481.526Z" fill="#E05C8B"/>
<path d="M578.536 132.846C570.955 131.794 545.415 130.288 531.468 154.548C528.266 134.924 535.518 117.158 548.667 113.885C559.577 111.145 571.41 119.197 578.548 132.846H578.536Z" fill="white"/>
<path d="M567.133 191.067C564.64 191.691 562.108 191.756 559.59 191.314C565.032 185.119 567.993 175.885 567.462 165.872L559.995 161.262L566.424 158.431C566.373 158.197 566.323 157.976 566.26 157.729C564.26 149.379 560.109 142.301 554.844 137.326C566.348 133.158 577.283 134.807 579.713 135.262C581.244 138.599 582.51 142.21 583.434 146.054C588.534 167.34 581.219 187.522 567.12 191.067H567.133Z" fill="white"/>
<path d="M585.558 145.548C584.571 141.405 583.191 137.509 581.496 133.937C581.483 133.859 581.445 133.781 581.394 133.703C573.902 118.041 560.512 108.625 548.147 111.716C533.251 115.456 525.239 135.963 529.897 157.834C529.897 157.938 529.935 158.041 529.96 158.132C530.049 158.548 530.15 158.964 530.251 159.392C535.63 181.86 552.425 197.016 567.662 193.198C582.913 189.38 590.95 167.99 585.571 145.522L585.558 145.548ZM548.653 113.885C559.563 111.145 571.396 119.197 578.534 132.846C570.953 131.794 545.413 130.288 531.466 154.548C528.264 134.924 535.516 117.158 548.666 113.885H548.653ZM567.131 191.068C564.638 191.691 562.106 191.756 559.588 191.315C565.03 185.12 567.992 175.886 567.46 165.873L559.993 161.262L566.422 158.431C566.372 158.197 566.321 157.977 566.258 157.73C564.258 149.379 560.107 142.301 554.842 137.327C566.346 133.158 577.281 134.807 579.711 135.262C581.242 138.6 582.508 142.21 583.432 146.054C588.532 167.34 581.217 187.522 567.118 191.068H567.131Z" fill="black"/>
<path d="M677.895 106.924C670.314 105.872 644.787 104.365 630.827 128.612C627.625 109.002 634.877 91.2353 648.014 87.9495C658.924 85.2092 670.757 93.2612 677.908 106.911L677.895 106.924Z" fill="white"/>
<path d="M666.469 165.158C663.975 165.782 661.444 165.847 658.926 165.405C664.368 159.21 667.329 149.976 666.798 139.963L659.331 135.366L665.76 132.521C665.722 132.288 665.659 132.067 665.608 131.82C663.596 123.469 659.457 116.391 654.18 111.417C665.697 107.261 676.644 108.924 679.061 109.365C680.593 112.69 681.858 116.3 682.782 120.145C687.87 141.431 680.555 161.613 666.456 165.158H666.469Z" fill="white"/>
<path d="M684.894 119.625C683.907 115.508 682.54 111.625 680.857 108.067C680.819 107.963 680.768 107.872 680.73 107.794C673.238 92.1313 659.848 82.7156 647.483 85.8065C632.599 89.5468 624.601 110.002 629.22 131.859C629.22 131.885 629.22 131.898 629.22 131.924C629.22 132.041 629.258 132.145 629.283 132.236C629.372 132.651 629.473 133.067 629.574 133.495C634.953 155.963 651.735 171.132 666.986 167.301C682.236 163.483 690.273 142.093 684.894 119.625ZM630.815 128.625C627.613 109.015 634.865 91.2482 648.002 87.9624C658.911 85.2221 670.745 93.2742 677.895 106.924C670.314 105.872 644.787 104.365 630.827 128.612L630.815 128.625ZM666.467 165.158C663.974 165.782 661.442 165.847 658.924 165.405C664.366 159.21 667.327 149.976 666.796 139.963L659.329 135.366L665.758 132.521C665.72 132.288 665.657 132.067 665.606 131.82C663.594 123.469 659.455 116.391 654.178 111.417C665.695 107.261 676.642 108.924 679.06 109.365C680.591 112.69 681.857 116.3 682.78 120.145C687.868 141.431 680.553 161.613 666.454 165.158H666.467Z" fill="black"/>
<path d="M681.082 207.574C676.412 204.457 670.565 203.133 665.034 203.964C663.807 204.146 662.946 205.314 663.136 206.574C663.313 207.834 664.452 208.704 665.693 208.522C668.401 208.12 671.211 208.353 673.83 209.172C648.835 224.678 619.321 232.12 590.085 230.302C591.591 228.639 593.351 227.198 595.3 226.094C596.388 225.47 596.78 224.068 596.173 222.951C595.565 221.834 594.199 221.431 593.11 222.055C584.567 226.912 579.125 236.886 579.568 246.886C579.619 248.159 580.682 249.146 581.922 249.081C582.074 249.081 582.213 249.055 582.352 249.016C583.378 248.756 584.112 247.795 584.061 246.679C583.922 243.419 584.517 240.172 585.744 237.172C593.819 261.432 618.891 275.809 643.671 269.601C668.692 263.328 684.5 238.276 680.26 212.678C683.209 215.172 685.411 218.613 686.436 222.367C686.752 223.574 687.967 224.289 689.144 223.99C689.157 223.99 689.182 223.977 689.208 223.964C690.41 223.626 691.106 222.354 690.777 221.133C689.284 215.626 685.753 210.678 681.082 207.561V207.574ZM642.608 265.133C631.319 267.965 619.966 266.081 610.525 260.718C613.676 254.432 619.03 249.25 625.37 246.419C630.926 243.938 637.267 243.237 643.241 244.406C642.532 245.237 641.874 246.12 641.266 247.042C640.57 248.094 640.836 249.536 641.861 250.25C642.405 250.627 643.064 250.731 643.658 250.575C644.177 250.445 644.658 250.12 644.987 249.627C648.012 245.055 652.53 241.64 657.694 240.016C662.44 238.523 667.566 238.601 672.248 240.198C666.743 252.237 656.163 261.731 642.583 265.133H642.608Z" fill="black"/>
<path d="M1386.18 195.639L1240.98 243.913C1226.53 248.718 1216.74 262.523 1216.74 278.108V434.097C1216.74 449.682 1226.53 463.487 1240.98 468.292L1386.18 516.565C1400.6 521.358 1416.37 516.098 1425.29 503.539L1514.94 377.265C1523.9 364.654 1523.9 347.537 1514.94 334.927L1425.29 208.652C1416.37 196.094 1400.6 190.834 1386.18 195.626V195.639Z" fill="#CD8077"/>
<path d="M1346.87 292.706C1346.62 296.368 1346 300.16 1344.96 303.979C1339.23 325.096 1323.2 339.044 1309.22 335.07C1306.74 334.369 1304.5 333.161 1302.51 331.524C1310.22 328.862 1317.22 322.264 1321.55 313.251L1317.24 305.511L1324.22 306.264C1324.29 306.031 1324.36 305.81 1324.42 305.576C1326.66 297.277 1326.43 289.03 1324.18 282.056C1336.21 284.173 1344.99 291.095 1346.88 292.706H1346.87Z" fill="white"/>
<path d="M1346.98 290.004C1340.86 285.29 1319.32 271.186 1295.57 285.368C1302.15 266.653 1316.96 254.809 1329.98 258.497C1340.8 261.562 1347.28 274.524 1346.98 290.004Z" fill="white"/>
<path d="M1330.56 256.367C1315.79 252.186 1299.03 266.03 1292.62 287.42C1292.57 287.524 1292.53 287.628 1292.51 287.718C1292.39 288.134 1292.26 288.563 1292.16 289.004C1286.12 311.29 1293.51 332.927 1308.64 337.213C1323.77 341.511 1341 326.875 1347.05 304.589C1348.15 300.498 1348.81 296.42 1349.06 292.472V292.446C1349.06 292.355 1349.07 292.264 1349.07 292.186C1350.04 274.77 1342.85 259.848 1330.56 256.367ZM1295.56 285.368C1302.15 266.653 1316.95 254.809 1329.98 258.497C1340.8 261.562 1347.28 274.523 1346.97 290.004C1340.86 285.29 1319.32 271.186 1295.56 285.368ZM1344.96 303.991C1339.23 325.109 1323.21 339.057 1309.22 335.083C1306.74 334.381 1304.5 333.174 1302.51 331.537C1310.22 328.875 1317.22 322.277 1321.55 313.264L1317.24 305.524L1324.22 306.277C1324.29 306.043 1324.36 305.823 1324.42 305.589C1326.66 297.29 1326.43 289.043 1324.18 282.069C1336.22 284.186 1344.99 291.108 1346.88 292.719C1346.63 296.381 1346.01 300.173 1344.97 303.991H1344.96Z" fill="black"/>
<path d="M1445.92 319.81C1445.65 323.485 1445.03 327.265 1443.99 331.083C1438.27 352.2 1422.25 366.148 1408.27 362.174C1405.8 361.473 1403.56 360.265 1401.57 358.629C1409.28 355.953 1416.28 349.369 1420.59 340.356L1416.28 332.615L1423.25 333.369C1423.31 333.135 1423.39 332.914 1423.45 332.68C1425.69 324.381 1425.46 316.122 1423.21 309.16C1435.25 311.277 1444.02 318.199 1445.92 319.81Z" fill="white"/>
<path d="M1446.02 317.109C1439.91 312.394 1418.36 298.29 1394.61 312.472C1401.19 293.758 1416 281.9 1429.02 285.602C1439.84 288.667 1446.32 301.628 1446.02 317.109Z" fill="white"/>
<path d="M1429.61 283.459C1414.84 279.277 1398.08 293.121 1391.66 314.511C1391.61 314.615 1391.57 314.719 1391.56 314.81C1391.43 315.225 1391.31 315.654 1391.21 316.096C1385.17 338.382 1392.56 360.018 1407.69 364.304C1422.82 368.603 1440.05 353.966 1446.1 331.68C1447.2 327.589 1447.86 323.511 1448.11 319.563V319.537C1448.11 319.446 1448.11 319.355 1448.11 319.277C1449.07 301.862 1441.88 286.939 1429.61 283.459ZM1394.61 312.459C1401.19 293.745 1416 281.887 1429.02 285.589C1439.84 288.654 1446.32 301.615 1446.02 317.096C1439.91 312.381 1418.37 298.277 1394.61 312.459ZM1444 331.083C1438.27 352.2 1422.25 366.148 1408.27 362.174C1405.8 361.473 1403.56 360.265 1401.57 358.629C1409.28 355.953 1416.28 349.369 1420.59 340.356L1416.28 332.615L1423.25 333.368C1423.32 333.135 1423.39 332.914 1423.45 332.68C1425.69 324.381 1425.47 316.121 1423.21 309.16C1435.25 311.277 1444.02 318.199 1445.92 319.81C1445.65 323.485 1445.03 327.264 1444 331.083Z" fill="black"/>
<path d="M1338.76 424.434C1323.39 419.941 1311.16 405.46 1309.27 389.2C1309.08 387.512 1310.26 385.979 1311.9 385.784C1313.55 385.59 1315.04 386.784 1315.24 388.473C1316.93 402.954 1328.25 415.785 1342.15 418.98C1356.06 422.162 1371.65 415.499 1379.21 403.135C1380.08 401.694 1381.94 401.252 1383.35 402.161C1384.75 403.057 1385.18 404.954 1384.3 406.395C1375.44 420.902 1357.15 428.72 1340.83 424.993C1340.14 424.837 1339.44 424.655 1338.76 424.447V424.434Z" fill="black"/>
<path d="M1087.34 518.318C1171.14 518.318 1239.08 448.811 1239.08 363.07C1239.08 277.328 1171.14 207.821 1087.34 207.821C1003.54 207.821 935.609 277.328 935.609 363.07C935.609 448.811 1003.54 518.318 1087.34 518.318Z" fill="#C5D846"/>
<path d="M1050.02 323.134C1049.92 322.732 1049.82 322.329 1049.7 321.939C1049.68 321.809 1049.65 321.68 1049.6 321.576C1049.6 321.576 1049.6 321.55 1049.6 321.537C1043.63 300.004 1027.16 285.809 1012.31 289.679C999.954 292.9 992.474 307.64 993.081 325.069C993.081 325.173 993.081 325.29 993.081 325.381C993.233 329.329 993.815 333.407 994.828 337.524C1000.42 359.94 1017.33 374.94 1032.56 370.979C1047.77 367.005 1055.6 345.55 1050.02 323.134ZM1012.82 291.822C1025.94 288.406 1040.49 300.588 1046.69 319.433C1023.22 304.718 1001.36 318.381 995.17 322.952C995.195 307.459 1001.94 294.666 1012.82 291.822ZM1032.01 368.836C1017.95 372.498 1002.21 358.2 996.916 336.978C995.967 333.147 995.41 329.342 995.245 325.667C997.195 324.082 1006.07 317.381 1018.13 315.524C1015.76 322.446 1015.36 330.68 1017.43 339.017C1017.49 339.251 1017.56 339.485 1017.62 339.706L1024.61 339.108L1020.14 346.758C1024.27 355.862 1031.14 362.589 1038.79 365.433C1036.77 367.031 1034.5 368.2 1032.01 368.849V368.836Z" fill="black"/>
<path d="M1046.69 319.433C1023.21 304.719 1001.36 318.381 995.168 322.953C995.193 307.459 1001.94 294.667 1012.82 291.822C1025.93 288.407 1040.49 300.589 1046.69 319.433Z" fill="white"/>
<path d="M1038.79 365.421C1036.77 367.018 1034.5 368.187 1032.01 368.836C1017.95 372.499 1002.2 358.2 996.913 336.979C995.964 333.148 995.407 329.342 995.242 325.667C997.191 324.082 1006.06 317.381 1018.12 315.524C1015.76 322.446 1015.35 330.68 1017.43 339.018C1017.49 339.252 1017.55 339.485 1017.62 339.706L1024.6 339.109L1020.14 346.758C1024.26 355.862 1031.13 362.589 1038.79 365.434V365.421Z" fill="white"/>
<path d="M1149.36 297.225C1149.26 296.822 1149.16 296.42 1149.04 296.03C1149.02 295.874 1148.97 295.731 1148.93 295.588C1142.95 274.082 1126.49 259.887 1111.64 263.757C1099.28 266.978 1091.8 281.718 1092.41 299.147C1092.41 299.251 1092.41 299.368 1092.41 299.459C1092.57 303.407 1093.14 307.485 1094.16 311.602C1099.75 334.017 1116.67 349.018 1131.88 345.057C1147.09 341.082 1154.93 319.628 1149.35 297.225H1149.36ZM1131.36 342.914C1117.3 346.576 1101.56 332.29 1096.28 311.056C1095.33 307.225 1094.76 303.42 1094.61 299.744C1096.57 298.147 1105.44 291.446 1117.5 289.601C1115.12 296.523 1114.72 304.77 1116.78 313.095C1116.84 313.342 1116.91 313.563 1116.97 313.783L1123.96 313.186L1119.48 320.835C1123.6 329.939 1130.47 336.667 1138.12 339.511C1136.09 341.108 1133.83 342.277 1131.35 342.927L1131.36 342.914ZM1094.53 297.043C1094.56 281.536 1101.3 268.757 1112.19 265.913C1125.27 262.497 1139.84 274.666 1146.03 293.51C1122.56 278.835 1100.75 292.471 1094.53 297.043Z" fill="black"/>
<path d="M1146.03 293.51C1122.56 278.835 1100.75 292.471 1094.53 297.043C1094.56 281.536 1101.3 268.757 1112.19 265.913C1125.27 262.497 1139.84 274.666 1146.03 293.51Z" fill="white"/>
<path d="M1138.13 339.511C1136.1 341.108 1133.84 342.277 1131.36 342.927C1117.3 346.589 1101.55 332.303 1096.28 311.069C1095.33 307.238 1094.76 303.433 1094.61 299.757C1096.57 298.16 1105.44 291.458 1117.5 289.614C1115.12 296.536 1114.72 304.783 1116.78 313.108C1116.84 313.355 1116.91 313.576 1116.97 313.796L1123.95 313.199L1119.47 320.848C1123.6 329.952 1130.47 336.68 1138.12 339.524L1138.13 339.511Z" fill="white"/>
<path d="M1149.05 296.043C1149.02 295.883 1148.97 295.735 1148.93 295.588C1149 295.735 1149.05 295.883 1149.05 296.043Z" fill="black"/>
<path d="M1101.67 436.161C1089.7 438.785 1076.32 433.486 1069.32 423.187C1068.6 422.122 1068.85 420.655 1069.9 419.901C1070.95 419.161 1072.38 419.421 1073.1 420.499C1079.33 429.681 1091.51 434.187 1102.04 431.226C1112.57 428.265 1120.77 418.018 1121.53 406.862C1121.61 405.564 1122.72 404.59 1123.98 404.68C1125.25 404.771 1126.21 405.901 1126.12 407.2C1125.22 420.278 1115.62 432.304 1103.26 435.785C1102.73 435.928 1102.2 436.07 1101.67 436.187V436.161Z" fill="black"/>
<path d="M477.107 517.306L240.717 458.954C221.91 454.305 210.33 434.928 214.873 415.668L271.889 173.834C276.433 154.587 295.341 142.742 314.148 147.379L550.538 205.73C569.344 210.379 580.925 229.756 576.381 249.016L519.366 490.851C514.822 510.098 495.914 521.942 477.107 517.306Z" fill="#F2D53A"/>
<path d="M355.406 214.457C343.016 211.405 329.651 220.86 322.235 236.561C322.184 236.639 322.146 236.717 322.121 236.795C320.45 240.367 319.096 244.263 318.122 248.406C312.819 270.9 320.919 292.25 336.182 296.017C351.445 299.783 368.164 284.562 373.479 262.068C373.581 261.666 373.669 261.263 373.745 260.86C373.783 260.718 373.821 260.575 373.846 260.432C378.403 238.561 370.315 218.133 355.419 214.457H355.406ZM354.9 216.613C368.037 219.847 375.352 237.574 372.226 257.198C358.178 233.003 332.651 234.6 325.07 235.678C332.17 222.003 343.978 213.912 354.9 216.613ZM336.688 293.861C322.577 290.367 315.185 270.211 320.21 248.912C321.121 245.068 322.361 241.445 323.893 238.107C326.348 237.639 337.27 235.964 348.775 240.068C343.522 245.068 339.384 252.159 337.422 260.523C337.372 260.757 337.308 260.99 337.27 261.224L343.712 264.042L336.258 268.666C335.764 278.692 338.751 287.913 344.231 294.082C341.713 294.536 339.169 294.471 336.675 293.861H336.688Z" fill="black"/>
<path d="M344.243 294.082C341.724 294.536 339.18 294.471 336.687 293.861C322.575 290.367 315.184 270.211 320.209 248.912C321.12 245.068 322.36 241.445 323.892 238.107C326.347 237.64 337.269 235.964 348.773 240.068C343.521 245.068 339.383 252.159 337.421 260.523C337.37 260.757 337.307 260.99 337.269 261.224L343.711 264.042L336.257 268.666C335.763 278.692 338.75 287.913 344.23 294.082H344.243Z" fill="white"/>
<path d="M372.239 257.185C358.19 232.99 332.663 234.588 325.082 235.666C332.182 221.99 343.99 213.899 354.912 216.6C368.049 219.834 375.365 237.562 372.239 257.185Z" fill="white"/>
<path d="M373.838 260.419C373.838 260.579 373.811 260.713 373.73 260.86C373.771 260.713 373.811 260.566 373.838 260.419Z" fill="black"/>
<path d="M455.074 239.042C442.709 235.99 429.383 245.393 421.966 261.042C421.89 261.146 421.827 261.263 421.789 261.38C420.118 264.952 418.764 268.848 417.79 272.991C412.487 295.471 420.587 316.835 435.85 320.602C451.113 324.368 467.844 309.147 473.147 286.653C473.249 286.251 473.337 285.835 473.426 285.419C473.464 285.276 473.489 285.147 473.514 285.017C478.071 263.133 469.983 242.717 455.087 239.042H455.074ZM454.568 241.198C467.705 244.445 475.02 262.172 471.894 281.796C457.846 257.588 432.319 259.198 424.75 260.276C431.838 246.588 443.646 238.51 454.568 241.198ZM436.356 318.446C422.245 314.965 414.853 294.809 419.878 273.51C420.789 269.666 422.029 266.042 423.573 262.705C426.054 262.237 436.964 260.562 448.455 264.666C443.203 269.653 439.052 276.744 437.09 285.121C437.04 285.354 436.976 285.588 436.938 285.822L443.38 288.627L435.926 293.264C435.432 303.29 438.419 312.511 443.886 318.667C441.368 319.121 438.837 319.069 436.343 318.446H436.356Z" fill="black"/>
<path d="M443.898 318.666C441.379 319.121 438.848 319.069 436.355 318.446C422.243 314.965 414.852 294.809 419.877 273.51C420.788 269.666 422.028 266.042 423.572 262.705C426.053 262.237 436.962 260.562 448.454 264.666C443.202 269.653 439.051 276.744 437.089 285.121C437.038 285.354 436.975 285.588 436.937 285.822L443.379 288.627L435.924 293.264C435.431 303.29 438.418 312.511 443.885 318.666H443.898Z" fill="white"/>
<path d="M471.906 281.783C457.857 257.575 432.33 259.185 424.762 260.263C431.849 246.575 443.657 238.497 454.579 241.185C467.716 244.432 475.032 262.159 471.906 281.783Z" fill="white"/>
<path d="M362.255 382.135C347.739 377.408 335.121 367.057 325.439 351.849C324.591 350.511 324.869 347.615 326.084 345.381C327.299 343.147 328.97 342.433 329.818 343.784C351.801 378.33 387.631 385.382 425.649 362.641C427.13 361.758 427.674 363.057 428.143 365.472C428.611 367.888 428.092 370.447 426.611 371.33C407.285 382.888 386.555 387.356 369.14 383.927C366.799 383.473 364.508 382.875 362.255 382.135Z" fill="black"/>
<path d="M849.779 214.263L676.973 418.629C662.482 435.759 671.531 462.565 693.249 466.825L952.622 517.76C974.314 522.02 992.362 500.578 985.097 479.175L898.517 223.873C891.265 202.509 864.219 197.172 849.766 214.263H849.779Z" fill="#FFA53A"/>
<path d="M828.859 434.46C819.405 431.902 810.989 425.681 804.306 416.265C803.712 415.434 803.813 413.564 804.522 412.097C805.23 410.629 806.281 410.109 806.863 410.941C822.038 432.37 845.236 435.707 868.89 419.876C869.814 419.265 870.207 420.084 870.574 421.603C870.941 423.123 870.7 424.798 869.776 425.408C857.753 433.447 844.603 436.993 833.327 435.383C831.821 435.162 830.327 434.863 828.859 434.46Z" fill="black"/>
<path d="M819.165 289.134C804.977 286.004 789.765 300.875 785.246 322.291C780.728 343.706 788.575 363.681 802.762 366.811C816.95 369.941 832.162 355.07 836.681 333.654C841.199 312.238 833.352 292.264 819.165 289.121V289.134Z" fill="white"/>
<path d="M838.794 334.135C838.882 333.745 838.958 333.342 839.034 332.94C839.059 332.81 839.097 332.667 839.123 332.524C843.16 310.537 834.617 290.29 819.632 286.978C807.191 284.225 794.067 293.991 787.018 309.836C786.967 309.914 786.929 309.978 786.904 310.082C785.296 313.706 784.031 317.654 783.145 321.823C778.374 344.433 786.98 365.59 802.319 368.979C817.671 372.369 834.048 356.745 838.806 334.135H838.794ZM819.164 289.134C832.39 292.056 840.097 309.576 837.427 329.264C822.809 305.433 797.307 307.667 789.789 308.927C796.56 295.069 808.179 286.705 819.151 289.121L819.164 289.134ZM802.762 366.823C788.574 363.68 780.728 343.706 785.246 322.29C786.056 318.42 787.233 314.771 788.676 311.394C791.131 310.875 801.99 308.927 813.595 312.758C808.457 317.875 804.508 325.07 802.724 333.472C802.673 333.706 802.623 333.94 802.585 334.161L809.09 336.823L801.762 341.628C801.496 351.654 804.711 360.823 810.305 366.849C807.799 367.356 805.268 367.356 802.762 366.81V366.823Z" fill="black"/>
<path d="M919.466 347.797C904.86 323.965 879.384 326.199 871.828 327.459C878.599 313.602 890.217 305.225 901.19 307.654C914.416 310.576 922.123 328.095 919.453 347.784L919.466 347.797Z" fill="white"/>
<path d="M892.343 385.369C889.837 385.875 887.294 385.888 884.8 385.33C870.613 382.2 862.766 362.226 867.272 340.81C868.082 336.94 869.259 333.29 870.701 329.914C873.106 329.394 883.99 327.42 895.621 331.264C890.496 336.394 886.534 343.589 884.762 351.992C884.699 352.226 884.661 352.459 884.611 352.693L891.128 355.343L883.801 360.148C883.522 370.187 886.724 379.343 892.343 385.369Z" fill="white"/>
<path d="M920.831 352.654C920.919 352.265 920.995 351.862 921.071 351.459C921.096 351.33 921.122 351.187 921.147 351.07C925.197 329.069 916.641 308.809 901.657 305.498C889.216 302.744 876.117 312.498 869.055 328.316C868.991 328.446 868.941 328.576 868.89 328.706C867.308 332.316 866.042 336.212 865.169 340.355C860.385 362.966 869.004 384.122 884.343 387.512C899.695 390.901 916.059 375.265 920.843 352.654H920.831ZM884.799 385.343C870.611 382.213 862.765 362.239 867.27 340.823C868.08 336.953 869.257 333.303 870.7 329.927C873.104 329.407 883.989 327.433 895.62 331.277C890.494 336.407 886.533 343.602 884.761 352.005C884.697 352.239 884.66 352.472 884.609 352.706L891.127 355.356L883.799 360.161C883.52 370.2 886.722 379.356 892.342 385.382C889.836 385.888 887.292 385.901 884.799 385.343ZM871.839 327.459C878.61 313.602 890.228 305.225 901.201 307.654C914.427 310.576 922.134 328.095 919.464 347.784C904.859 323.953 879.382 326.186 871.826 327.446L871.839 327.459Z" fill="black"/>
<path d="M1576.83 390.525C1567.38 387.966 1558.96 381.745 1552.28 372.33C1551.68 371.498 1551.79 369.628 1552.49 368.161C1553.2 366.693 1554.25 366.174 1554.84 367.005C1570.01 388.434 1593.21 391.771 1616.86 375.94C1617.79 375.33 1618.18 376.148 1618.55 377.667C1618.91 379.187 1618.67 380.862 1617.75 381.473C1605.73 389.512 1592.58 393.057 1581.3 391.447C1579.79 391.226 1578.3 390.927 1576.83 390.525Z" fill="black"/>
<path d="M0.492174 984.285L35.1192 780.802C37.9668 765.711 47.4588 757.438 62.1525 757.438H89.6668C104.841 757.438 111.486 765.711 108.638 780.802L105.791 797.348C120.497 768.633 149.429 752.074 179.791 752.074C207.773 752.074 232.908 764.243 242.868 795.4C272.281 758.399 301.213 752.074 328.727 752.074C391.337 752.074 408.891 805.14 398.93 864.037L378.061 984.272C375.694 999.363 365.734 1007.64 351.027 1007.64H323.513C308.807 1007.64 302.175 999.363 304.541 984.272L324.943 867.44C330.638 832.387 321.146 813.4 299.327 813.4C278.926 813.4 253.322 830.439 244.78 876.193L226.276 984.259C223.429 999.35 213.949 1007.62 199.243 1007.62H171.26C156.554 1007.62 149.91 999.35 152.757 984.259L172.678 867.427C178.841 832.374 168.881 813.387 147.062 813.387C125.243 813.387 100.108 831.881 92.0461 878.622L74.0239 984.259C71.6446 999.35 61.6842 1007.62 46.9906 1007.62H18.9953C4.28899 1007.62 -1.87451 999.35 0.50483 984.259L0.492174 984.285Z" fill="white"/>
<path d="M440.986 882.531C453.794 809.023 511.658 752.062 580.431 752.062C612.691 752.062 638.775 764.724 651.583 792.958L653.482 780.789C656.329 765.698 665.821 757.425 680.515 757.425H708.029C722.736 757.425 729.848 765.698 727.001 780.789L692.374 984.272C689.526 999.363 680.034 1007.64 665.34 1007.64H637.358C622.652 1007.64 616.007 999.363 618.855 984.272L620.753 972.584C597.985 1000.34 567.623 1012.99 535.375 1012.99C467.071 1012.99 428.178 956.519 440.986 882.518V882.531ZM637.358 882.531C643.99 842.608 624.55 812.426 587.075 812.426C549.601 812.426 520.669 844.063 514.505 882.531C507.861 921.479 524.947 952.636 562.89 952.636C600.833 952.636 630.245 922.453 637.358 882.531Z" fill="white"/>
<path d="M766.716 883.505C779.043 812.919 840.704 752.074 923.247 752.074C992.5 752.074 1041.82 794.906 1031.39 874.751C1029.96 888.868 1019.05 895.193 1004.83 895.193H834.54C828.845 924.895 853.043 953.61 900.466 953.61C917.539 953.61 936.042 949.233 956.912 938.518C970.669 931.22 981.097 932.194 987.742 943.389L992.007 950.207C999.12 961.895 996.753 975.038 981.566 984.766C950.255 1005.7 916.108 1013 884.797 1013C797.521 1013 754.364 955.077 766.691 883.505H766.716ZM966.404 853.335C965.455 819.751 939.37 809.036 914.223 809.036C889.075 809.036 857.777 820.725 844.02 853.335H966.391H966.404Z" fill="white"/>
<path d="M1183.19 953.61L1159.95 889.349L1143.83 984.272C1141.45 999.363 1131.49 1007.64 1116.79 1007.64H1088.81C1074.11 1007.64 1067.94 999.363 1070.31 984.272L1122.49 679.048C1125.34 663.956 1134.82 655.684 1149.52 655.684H1177.51C1192.21 655.684 1198.86 663.956 1196.01 679.048L1165.18 859.647L1240.6 772.503C1249.13 761.789 1258.14 757.412 1270.48 757.412H1302.26C1321.71 757.412 1325.49 770.555 1311.27 786.127L1230.64 873.271L1252.94 925.362C1261.48 943.856 1269.06 950.674 1283.77 950.674C1286.61 950.674 1293.25 950.194 1298.94 948.246C1308.9 945.817 1314.6 947.272 1317.44 955.545L1323.61 976.96C1325.99 985.233 1322.19 994.48 1308.9 1000.82C1289.45 1010.56 1270.48 1012.99 1258.15 1012.99C1215.46 1012.99 1195.54 989.623 1183.21 953.597L1183.19 953.61Z" fill="white"/>
<path d="M1361.74 984.285L1396.83 780.802C1399.2 765.711 1408.69 757.438 1423.4 757.438H1451.38C1466.09 757.438 1472.72 765.711 1470.35 780.802L1435.26 984.285C1432.89 999.376 1422.93 1007.65 1408.22 1007.65H1380.71C1366 1007.65 1359.37 999.376 1361.74 984.285ZM1405.38 688.788C1409.17 666.398 1428.14 649.359 1456.13 649.359C1484.11 649.359 1497.4 666.398 1493.6 688.788C1489.81 710.697 1469.88 727.736 1442.85 727.736C1415.82 727.736 1401.58 710.697 1405.38 688.788Z" fill="white"/>
<path d="M1533.68 882.531C1546.49 809.023 1604.84 752.061 1673.61 752.061C1705.39 752.061 1731.47 764.724 1744.28 792.958L1764.2 679.048C1766.57 663.956 1776.54 655.684 1791.24 655.684H1818.75C1833.46 655.684 1840.09 663.956 1837.72 679.048L1785.07 984.272C1782.71 999.363 1772.74 1007.64 1758.04 1007.64H1730.52C1715.82 1007.64 1709.17 999.363 1711.55 984.272L1713.45 972.584C1691.15 1000.34 1660.33 1012.99 1628.54 1012.99C1559.77 1012.99 1520.86 956.519 1533.68 882.518V882.531ZM1730.54 882.531C1736.7 842.608 1717.26 812.426 1679.79 812.426C1642.31 812.426 1613.85 844.063 1607.22 882.531C1600.57 921.479 1617.64 952.635 1656.07 952.635C1694.49 952.635 1723.42 922.453 1730.54 882.531Z" fill="white"/>
<path d="M1877.17 882.531C1889.5 810.478 1956.85 752.062 2034.17 752.062C2111.49 752.062 2159.39 810.478 2147.06 882.531C2134.73 954.584 2066.9 1013 1989.58 1013C1912.27 1013 1864.83 955.077 1877.17 882.531ZM2077.33 883.024C2083.97 843.595 2060.72 813.413 2024.21 813.413C1987.7 813.413 1953.54 843.595 1946.89 883.024C1940.25 921.973 1963.5 952.155 2000.49 952.155C2037.49 952.155 2070.7 921.973 2077.34 883.024H2077.33Z" fill="white"/>
</g>
<defs>
<clipPath id="clip_logo_mark">
<rect width="100%" height="100%" fill="white"/>
</clipPath>
</defs>
</svg>
